<mxfile host="app.diagrams.net" agent="Mozilla/5.0 (Windows NT 10.0; Win64; x64) AppleWebKit/537.36 (KHTML, like Gecko) Chrome/133.0.0.0 Safari/537.36" version="26.1.0" pages="6">
  <diagram name="data model" id="wYn-wobxbwMd4AkLSX74">
    <mxGraphModel dx="993" dy="601" grid="1" gridSize="10" guides="1" tooltips="1" connect="1" arrows="1" fold="1" page="1" pageScale="1" pageWidth="850" pageHeight="1100" math="0" shadow="0">
      <root>
        <mxCell id="0" />
        <mxCell id="1" parent="0" />
        <mxCell id="8mA-eJUlBnWXggkQX6Ix-1" value="ceiling_light" style="rounded=0;whiteSpace=wrap;html=1;align=left;" vertex="1" parent="1">
          <mxGeometry x="70" y="330" width="240" height="30" as="geometry" />
        </mxCell>
        <mxCell id="8mA-eJUlBnWXggkQX6Ix-2" value="- on : bool&lt;br&gt;- shade : int&lt;br&gt;- room_num : int" style="rounded=0;whiteSpace=wrap;html=1;align=left;" vertex="1" parent="1">
          <mxGeometry x="70" y="360" width="240" height="60" as="geometry" />
        </mxCell>
        <mxCell id="8mA-eJUlBnWXggkQX6Ix-5" value="+ check_status(room_num : int) : [on : bool, shade : int]&lt;div&gt;+ flip_switch(room_num : int)&amp;nbsp;&lt;span style=&quot;background-color: transparent; color: light-dark(rgb(0, 0, 0), rgb(255, 255, 255));&quot;&gt;: bool&lt;/span&gt;&lt;/div&gt;&lt;div&gt;&lt;span style=&quot;background-color: transparent; color: light-dark(rgb(0, 0, 0), rgb(255, 255, 255));&quot;&gt;+ dim(shade : int, room_num : int)&amp;nbsp;&amp;nbsp;&lt;/span&gt;&lt;/div&gt;" style="rounded=0;whiteSpace=wrap;html=1;align=left;" vertex="1" parent="1">
          <mxGeometry x="70" y="420" width="240" height="80" as="geometry" />
        </mxCell>
        <mxCell id="8mA-eJUlBnWXggkQX6Ix-14" value="lamp" style="rounded=0;whiteSpace=wrap;html=1;align=left;" vertex="1" parent="1">
          <mxGeometry x="360" y="330" width="200" height="30" as="geometry" />
        </mxCell>
        <mxCell id="8mA-eJUlBnWXggkQX6Ix-15" value="- on : bool&lt;br&gt;- shade : int&lt;br&gt;- id : int" style="rounded=0;whiteSpace=wrap;html=1;align=left;" vertex="1" parent="1">
          <mxGeometry x="360" y="360" width="200" height="60" as="geometry" />
        </mxCell>
        <mxCell id="8mA-eJUlBnWXggkQX6Ix-16" value="+ check_status(which : int) : list[on : bool, shade : int]&lt;div&gt;+ flip_switch(id : int)&amp;nbsp;&lt;span style=&quot;background-color: transparent; color: light-dark(rgb(0, 0, 0), rgb(255, 255, 255));&quot;&gt;: bool&lt;/span&gt;&lt;/div&gt;&lt;div&gt;&lt;span style=&quot;background-color: transparent; color: light-dark(rgb(0, 0, 0), rgb(255, 255, 255));&quot;&gt;+ dim(shade : int, room_num : int)&amp;nbsp;&amp;nbsp;&lt;/span&gt;&lt;/div&gt;" style="rounded=0;whiteSpace=wrap;html=1;align=left;" vertex="1" parent="1">
          <mxGeometry x="360" y="420" width="200" height="80" as="geometry" />
        </mxCell>
        <mxCell id="8mA-eJUlBnWXggkQX6Ix-17" value="blinds" style="rounded=0;whiteSpace=wrap;html=1;align=left;" vertex="1" parent="1">
          <mxGeometry x="70" y="540" width="240" height="30" as="geometry" />
        </mxCell>
        <mxCell id="8mA-eJUlBnWXggkQX6Ix-18" value="- is_up : bool&lt;div&gt;- is_open : bool&lt;br&gt;- room_num : int&lt;/div&gt;" style="rounded=0;whiteSpace=wrap;html=1;align=left;" vertex="1" parent="1">
          <mxGeometry x="70" y="570" width="240" height="70" as="geometry" />
        </mxCell>
        <mxCell id="8mA-eJUlBnWXggkQX6Ix-19" value="+ check_status(room_num : int) : [is_open : bool, is_up : bool]&lt;div&gt;+ send_blinds(room_num : int) : bool&amp;nbsp;&lt;/div&gt;&lt;div&gt;&lt;span style=&quot;background-color: transparent; color: light-dark(rgb(0, 0, 0), rgb(255, 255, 255));&quot;&gt;^ ascend or descend&lt;/span&gt;&lt;/div&gt;&lt;div&gt;&lt;span style=&quot;background-color: transparent; color: light-dark(rgb(0, 0, 0), rgb(255, 255, 255));&quot;&gt;+ shutter(room_num : int) : bool&amp;nbsp;&lt;/span&gt;&lt;/div&gt;&lt;div&gt;&lt;span style=&quot;background-color: transparent; color: light-dark(rgb(0, 0, 0), rgb(255, 255, 255));&quot;&gt;^ open or close&lt;/span&gt;&lt;/div&gt;" style="rounded=0;whiteSpace=wrap;html=1;align=left;" vertex="1" parent="1">
          <mxGeometry x="70" y="640" width="240" height="110" as="geometry" />
        </mxCell>
        <mxCell id="VYvWq9Hezxum7LgDFICL-1" value="alarm" style="rounded=0;whiteSpace=wrap;html=1;align=left;" vertex="1" parent="1">
          <mxGeometry x="360" y="540" width="200" height="30" as="geometry" />
        </mxCell>
        <mxCell id="VYvWq9Hezxum7LgDFICL-2" value="- is_armed : bool&lt;div&gt;- is_alarm : bool&lt;br&gt;&lt;div&gt;- code : int&lt;/div&gt;&lt;/div&gt;" style="rounded=0;whiteSpace=wrap;html=1;align=left;" vertex="1" parent="1">
          <mxGeometry x="360" y="570" width="200" height="60" as="geometry" />
        </mxCell>
        <mxCell id="VYvWq9Hezxum7LgDFICL-3" value="+ check_status() : list[is_armed : bool, is_alarm : bool]&lt;div&gt;+ enter_code(code : int) : string&lt;/div&gt;&lt;div&gt;+ dis_arm()&amp;nbsp;&lt;/div&gt;&lt;div&gt;^^ arm / disarm&lt;/div&gt;" style="rounded=0;whiteSpace=wrap;html=1;align=left;" vertex="1" parent="1">
          <mxGeometry x="360" y="630" width="200" height="100" as="geometry" />
        </mxCell>
        <mxCell id="VYvWq9Hezxum7LgDFICL-6" value="lock" style="rounded=0;whiteSpace=wrap;html=1;align=left;" vertex="1" parent="1">
          <mxGeometry x="70" y="790" width="230" height="30" as="geometry" />
        </mxCell>
        <mxCell id="VYvWq9Hezxum7LgDFICL-7" value="- which_lock : int&lt;div&gt;- lock_codes : int [ ]&lt;/div&gt;&lt;div&gt;- is_unlocked : bool&lt;/div&gt;" style="rounded=0;whiteSpace=wrap;html=1;align=left;" vertex="1" parent="1">
          <mxGeometry x="70" y="820" width="230" height="60" as="geometry" />
        </mxCell>
        <mxCell id="VYvWq9Hezxum7LgDFICL-8" value="+ check_status(which_lock) : bool&lt;div&gt;+ attempt(code : int) : string&lt;br&gt;&lt;/div&gt;" style="rounded=0;whiteSpace=wrap;html=1;align=left;" vertex="1" parent="1">
          <mxGeometry x="70" y="880" width="230" height="70" as="geometry" />
        </mxCell>
        <mxCell id="VYvWq9Hezxum7LgDFICL-10" value="user" style="rounded=0;whiteSpace=wrap;html=1;align=left;" vertex="1" parent="1">
          <mxGeometry x="70" y="90" width="200" height="30" as="geometry" />
        </mxCell>
        <mxCell id="VYvWq9Hezxum7LgDFICL-11" value="" style="rounded=0;whiteSpace=wrap;html=1;align=left;" vertex="1" parent="1">
          <mxGeometry x="70" y="120" width="200" height="60" as="geometry" />
        </mxCell>
        <mxCell id="VYvWq9Hezxum7LgDFICL-12" value="" style="rounded=0;whiteSpace=wrap;html=1;align=left;" vertex="1" parent="1">
          <mxGeometry x="70" y="180" width="200" height="100" as="geometry" />
        </mxCell>
      </root>
    </mxGraphModel>
  </diagram>
  <diagram id="k3UeJLmUukmVHn4yL383" name="Page-2">
    <mxGraphModel dx="662" dy="401" grid="1" gridSize="10" guides="1" tooltips="1" connect="1" arrows="1" fold="1" page="1" pageScale="1" pageWidth="850" pageHeight="1100" math="0" shadow="0">
      <root>
        <mxCell id="0" />
        <mxCell id="1" parent="0" />
        <mxCell id="yfFFySnceczdXqigyrS5-1" value="home" style="rounded=0;whiteSpace=wrap;html=1;align=left;" vertex="1" parent="1">
          <mxGeometry x="30" y="40" width="240" height="30" as="geometry" />
        </mxCell>
        <mxCell id="yfFFySnceczdXqigyrS5-2" value="- rooms : room [ ]" style="rounded=0;whiteSpace=wrap;html=1;align=left;" vertex="1" parent="1">
          <mxGeometry x="30" y="70" width="240" height="40" as="geometry" />
        </mxCell>
        <mxCell id="yfFFySnceczdXqigyrS5-3" value="+ check_status(room_num : int) : string [ ]" style="rounded=0;whiteSpace=wrap;html=1;align=left;" vertex="1" parent="1">
          <mxGeometry x="30" y="110" width="240" height="60" as="geometry" />
        </mxCell>
        <mxCell id="yfFFySnceczdXqigyrS5-6" value="room" style="rounded=0;whiteSpace=wrap;html=1;align=left;" vertex="1" parent="1">
          <mxGeometry x="360" y="40" width="240" height="30" as="geometry" />
        </mxCell>
        <mxCell id="yfFFySnceczdXqigyrS5-7" value="- room_id : int&amp;nbsp;&lt;div&gt;- lamps : int&lt;/div&gt;&lt;div&gt;- blinds : blinds&lt;/div&gt;&lt;div&gt;&lt;div&gt;- ceil_lights : ceil_light&lt;/div&gt;&lt;div&gt;- alarm: bool&lt;/div&gt;&lt;div&gt;- locks : lock&lt;/div&gt;&lt;div&gt;&lt;br&gt;&lt;/div&gt;&lt;/div&gt;" style="rounded=0;whiteSpace=wrap;html=1;align=left;" vertex="1" parent="1">
          <mxGeometry x="360" y="70" width="240" height="110" as="geometry" />
        </mxCell>
        <mxCell id="yfFFySnceczdXqigyrS5-8" value="+ check_status(room_num : int)&amp;nbsp;" style="rounded=0;whiteSpace=wrap;html=1;align=left;" vertex="1" parent="1">
          <mxGeometry x="360" y="180" width="240" height="80" as="geometry" />
        </mxCell>
      </root>
    </mxGraphModel>
  </diagram>
  <diagram id="hTHZLnYBLFC-9LxclPTn" name="client state chart">
    <mxGraphModel dx="1134" dy="687" grid="1" gridSize="10" guides="1" tooltips="1" connect="1" arrows="1" fold="1" page="1" pageScale="1" pageWidth="850" pageHeight="1100" math="0" shadow="0">
      <root>
        <mxCell id="0" />
        <mxCell id="1" parent="0" />
        <mxCell id="DNQ7EmcRux1wr35FCX8g-3" value="Start" style="ellipse;whiteSpace=wrap;html=1;" vertex="1" parent="1">
          <mxGeometry x="50" y="40" width="120" height="60" as="geometry" />
        </mxCell>
        <mxCell id="DNQ7EmcRux1wr35FCX8g-5" value="login" style="rounded=0;whiteSpace=wrap;html=1;" vertex="1" parent="1">
          <mxGeometry x="422.5" y="180" width="95" height="40" as="geometry" />
        </mxCell>
        <mxCell id="DNQ7EmcRux1wr35FCX8g-7" value="Logged in:&lt;br&gt;&lt;br&gt;1. help&lt;br&gt;2. exit&lt;br&gt;3. logout&lt;br&gt;4. query all&lt;br&gt;5. list rooms&lt;br&gt;6. query room (id or name)&lt;div&gt;7. query group (group)&lt;/div&gt;&lt;div&gt;8. query device (id)&lt;/div&gt;&lt;div&gt;9. list devices&lt;/div&gt;&lt;div&gt;&lt;div&gt;&amp;nbsp;10. control lamp (id) on|off|dim (level) |color (color)&lt;/div&gt;&lt;div&gt;&amp;nbsp; 11. control ceiling_light (id) on|off|dim (level) |color (color)&lt;/div&gt;&lt;div&gt;&amp;nbsp; 12. control lock (id)&amp;nbsp;lock|unlock (code)&lt;/div&gt;&lt;div&gt;&amp;nbsp;13. control blinds (id)&amp;nbsp;open|close|up|down&lt;/div&gt;&lt;div&gt;&amp;nbsp; 14. control alarm&amp;nbsp;&lt;span style=&quot;background-color: transparent; color: light-dark(rgb(0, 0, 0), rgb(255, 255, 255));&quot;&gt;(id)&lt;/span&gt;&lt;span style=&quot;background-color: transparent; color: light-dark(rgb(0, 0, 0), rgb(255, 255, 255));&quot;&gt;&amp;nbsp;arm|disarm|trigger|stop&lt;/span&gt;&lt;/div&gt;&lt;/div&gt;" style="rounded=0;whiteSpace=wrap;html=1;align=left;" vertex="1" parent="1">
          <mxGeometry x="250" y="270" width="320" height="250" as="geometry" />
        </mxCell>
        <mxCell id="DNQ7EmcRux1wr35FCX8g-12" value="1. Help&lt;div&gt;2. Login&lt;/div&gt;&lt;div&gt;3. Exit&lt;/div&gt;" style="rounded=0;whiteSpace=wrap;html=1;" vertex="1" parent="1">
          <mxGeometry x="60" y="140" width="120" height="60" as="geometry" />
        </mxCell>
        <mxCell id="DNQ7EmcRux1wr35FCX8g-13" value="Exit" style="rounded=0;whiteSpace=wrap;html=1;" vertex="1" parent="1">
          <mxGeometry x="30" y="390" width="120" height="60" as="geometry" />
        </mxCell>
        <mxCell id="DNQ7EmcRux1wr35FCX8g-14" value="" style="endArrow=classic;html=1;rounded=0;exitX=0;exitY=1;exitDx=0;exitDy=0;entryX=0.194;entryY=-0.006;entryDx=0;entryDy=0;entryPerimeter=0;" edge="1" parent="1" source="DNQ7EmcRux1wr35FCX8g-12" target="DNQ7EmcRux1wr35FCX8g-13">
          <mxGeometry width="50" height="50" relative="1" as="geometry">
            <mxPoint x="380" y="390" as="sourcePoint" />
            <mxPoint x="120" y="290" as="targetPoint" />
          </mxGeometry>
        </mxCell>
        <mxCell id="DNQ7EmcRux1wr35FCX8g-15" value="3" style="edgeLabel;html=1;align=center;verticalAlign=middle;resizable=0;points=[];" vertex="1" connectable="0" parent="DNQ7EmcRux1wr35FCX8g-14">
          <mxGeometry x="-0.3219" y="1" relative="1" as="geometry">
            <mxPoint as="offset" />
          </mxGeometry>
        </mxCell>
        <mxCell id="DNQ7EmcRux1wr35FCX8g-16" value="" style="endArrow=classic;html=1;rounded=0;exitX=1;exitY=0;exitDx=0;exitDy=0;entryX=0;entryY=0.5;entryDx=0;entryDy=0;" edge="1" parent="1" source="DNQ7EmcRux1wr35FCX8g-12" target="DNQ7EmcRux1wr35FCX8g-27">
          <mxGeometry width="50" height="50" relative="1" as="geometry">
            <mxPoint x="380" y="300" as="sourcePoint" />
            <mxPoint x="240" y="100" as="targetPoint" />
          </mxGeometry>
        </mxCell>
        <mxCell id="DNQ7EmcRux1wr35FCX8g-17" value="2" style="edgeLabel;html=1;align=center;verticalAlign=middle;resizable=0;points=[];" vertex="1" connectable="0" parent="DNQ7EmcRux1wr35FCX8g-16">
          <mxGeometry x="0.0041" relative="1" as="geometry">
            <mxPoint as="offset" />
          </mxGeometry>
        </mxCell>
        <mxCell id="DNQ7EmcRux1wr35FCX8g-19" value="" style="endArrow=classic;html=1;rounded=0;entryX=1;entryY=1;entryDx=0;entryDy=0;exitX=0.5;exitY=1;exitDx=0;exitDy=0;" edge="1" parent="1" source="DNQ7EmcRux1wr35FCX8g-28" target="DNQ7EmcRux1wr35FCX8g-12">
          <mxGeometry width="50" height="50" relative="1" as="geometry">
            <mxPoint x="330" y="90" as="sourcePoint" />
            <mxPoint x="430" y="250" as="targetPoint" />
          </mxGeometry>
        </mxCell>
        <mxCell id="DNQ7EmcRux1wr35FCX8g-20" value="login fail" style="edgeLabel;html=1;align=center;verticalAlign=middle;resizable=0;points=[];" vertex="1" connectable="0" parent="DNQ7EmcRux1wr35FCX8g-19">
          <mxGeometry x="0.0204" y="-1" relative="1" as="geometry">
            <mxPoint as="offset" />
          </mxGeometry>
        </mxCell>
        <mxCell id="DNQ7EmcRux1wr35FCX8g-21" value="" style="endArrow=classic;html=1;rounded=0;exitX=0;exitY=1;exitDx=0;exitDy=0;entryX=0.172;entryY=0.006;entryDx=0;entryDy=0;entryPerimeter=0;" edge="1" parent="1" source="DNQ7EmcRux1wr35FCX8g-3" target="DNQ7EmcRux1wr35FCX8g-12">
          <mxGeometry width="50" height="50" relative="1" as="geometry">
            <mxPoint x="380" y="300" as="sourcePoint" />
            <mxPoint x="430" y="250" as="targetPoint" />
          </mxGeometry>
        </mxCell>
        <mxCell id="DNQ7EmcRux1wr35FCX8g-23" value="" style="endArrow=classic;html=1;rounded=0;exitX=0.5;exitY=1;exitDx=0;exitDy=0;" edge="1" parent="1" source="DNQ7EmcRux1wr35FCX8g-5">
          <mxGeometry width="50" height="50" relative="1" as="geometry">
            <mxPoint x="380" y="300" as="sourcePoint" />
            <mxPoint x="420" y="270" as="targetPoint" />
          </mxGeometry>
        </mxCell>
        <mxCell id="DNQ7EmcRux1wr35FCX8g-27" value="enter username:" style="rounded=0;whiteSpace=wrap;html=1;" vertex="1" parent="1">
          <mxGeometry x="230" y="50" width="60" height="60" as="geometry" />
        </mxCell>
        <mxCell id="DNQ7EmcRux1wr35FCX8g-28" value="enter password:" style="whiteSpace=wrap;html=1;aspect=fixed;" vertex="1" parent="1">
          <mxGeometry x="340" y="60" width="60" height="60" as="geometry" />
        </mxCell>
        <mxCell id="DNQ7EmcRux1wr35FCX8g-29" value="" style="endArrow=classic;html=1;rounded=0;exitX=1;exitY=0.5;exitDx=0;exitDy=0;entryX=0;entryY=0.5;entryDx=0;entryDy=0;" edge="1" parent="1" source="DNQ7EmcRux1wr35FCX8g-27" target="DNQ7EmcRux1wr35FCX8g-28">
          <mxGeometry width="50" height="50" relative="1" as="geometry">
            <mxPoint x="380" y="220" as="sourcePoint" />
            <mxPoint x="430" y="170" as="targetPoint" />
          </mxGeometry>
        </mxCell>
        <mxCell id="DNQ7EmcRux1wr35FCX8g-30" value="" style="endArrow=classic;html=1;rounded=0;entryX=0;entryY=0;entryDx=0;entryDy=0;exitX=1;exitY=0.25;exitDx=0;exitDy=0;" edge="1" parent="1" source="DNQ7EmcRux1wr35FCX8g-28" target="DNQ7EmcRux1wr35FCX8g-5">
          <mxGeometry width="50" height="50" relative="1" as="geometry">
            <mxPoint x="380" y="220" as="sourcePoint" />
            <mxPoint x="430" y="170" as="targetPoint" />
          </mxGeometry>
        </mxCell>
        <mxCell id="DNQ7EmcRux1wr35FCX8g-31" value="login succeed" style="edgeLabel;html=1;align=center;verticalAlign=middle;resizable=0;points=[];" vertex="1" connectable="0" parent="DNQ7EmcRux1wr35FCX8g-30">
          <mxGeometry x="-0.025" y="-4" relative="1" as="geometry">
            <mxPoint y="-1" as="offset" />
          </mxGeometry>
        </mxCell>
        <mxCell id="DNQ7EmcRux1wr35FCX8g-32" value="" style="endArrow=classic;html=1;rounded=0;exitX=0.002;exitY=0.647;exitDx=0;exitDy=0;exitPerimeter=0;entryX=1;entryY=0.5;entryDx=0;entryDy=0;" edge="1" parent="1" source="DNQ7EmcRux1wr35FCX8g-7" target="DNQ7EmcRux1wr35FCX8g-13">
          <mxGeometry width="50" height="50" relative="1" as="geometry">
            <mxPoint x="380" y="360" as="sourcePoint" />
            <mxPoint x="430" y="310" as="targetPoint" />
          </mxGeometry>
        </mxCell>
        <mxCell id="DNQ7EmcRux1wr35FCX8g-33" value="2" style="edgeLabel;html=1;align=center;verticalAlign=middle;resizable=0;points=[];" vertex="1" connectable="0" parent="DNQ7EmcRux1wr35FCX8g-32">
          <mxGeometry x="-0.0077" y="5" relative="1" as="geometry">
            <mxPoint as="offset" />
          </mxGeometry>
        </mxCell>
        <mxCell id="DNQ7EmcRux1wr35FCX8g-34" value="" style="endArrow=classic;html=1;rounded=0;exitX=-0.002;exitY=0.54;exitDx=0;exitDy=0;exitPerimeter=0;entryX=0.317;entryY=1.006;entryDx=0;entryDy=0;entryPerimeter=0;" edge="1" parent="1" source="DNQ7EmcRux1wr35FCX8g-7" target="DNQ7EmcRux1wr35FCX8g-12">
          <mxGeometry width="50" height="50" relative="1" as="geometry">
            <mxPoint x="380" y="360" as="sourcePoint" />
            <mxPoint x="430" y="310" as="targetPoint" />
          </mxGeometry>
        </mxCell>
        <mxCell id="DNQ7EmcRux1wr35FCX8g-35" value="3" style="edgeLabel;html=1;align=center;verticalAlign=middle;resizable=0;points=[];" vertex="1" connectable="0" parent="DNQ7EmcRux1wr35FCX8g-34">
          <mxGeometry x="0.0105" y="3" relative="1" as="geometry">
            <mxPoint x="1" as="offset" />
          </mxGeometry>
        </mxCell>
      </root>
    </mxGraphModel>
  </diagram>
  <diagram id="7gUjtOXJHz-Y727QAoDB" name="server state chart">
    <mxGraphModel dx="836" dy="506" grid="1" gridSize="10" guides="1" tooltips="1" connect="1" arrows="1" fold="1" page="1" pageScale="1" pageWidth="850" pageHeight="1100" math="0" shadow="0">
      <root>
        <mxCell id="0" />
        <mxCell id="1" parent="0" />
        <mxCell id="3RdnUcvol1iS9yb7YuFm-2" value="initialize smart home" style="ellipse;whiteSpace=wrap;html=1;" vertex="1" parent="1">
          <mxGeometry x="50" y="60" width="120" height="80" as="geometry" />
        </mxCell>
        <mxCell id="3RdnUcvol1iS9yb7YuFm-4" value="run smart home" style="ellipse;whiteSpace=wrap;html=1;" vertex="1" parent="1">
          <mxGeometry x="50" y="170" width="120" height="80" as="geometry" />
        </mxCell>
        <mxCell id="3RdnUcvol1iS9yb7YuFm-5" value="wait for client to connect...." style="ellipse;whiteSpace=wrap;html=1;" vertex="1" parent="1">
          <mxGeometry x="50" y="280" width="120" height="80" as="geometry" />
        </mxCell>
        <mxCell id="3RdnUcvol1iS9yb7YuFm-6" value="new connection" style="ellipse;whiteSpace=wrap;html=1;" vertex="1" parent="1">
          <mxGeometry x="50" y="390" width="120" height="80" as="geometry" />
        </mxCell>
        <mxCell id="3RdnUcvol1iS9yb7YuFm-7" value="" style="endArrow=classic;html=1;rounded=0;exitX=0.5;exitY=1;exitDx=0;exitDy=0;" edge="1" parent="1" source="3RdnUcvol1iS9yb7YuFm-2" target="3RdnUcvol1iS9yb7YuFm-4">
          <mxGeometry width="50" height="50" relative="1" as="geometry">
            <mxPoint x="380" y="300" as="sourcePoint" />
            <mxPoint x="430" y="250" as="targetPoint" />
          </mxGeometry>
        </mxCell>
        <mxCell id="3RdnUcvol1iS9yb7YuFm-8" value="" style="endArrow=classic;html=1;rounded=0;exitX=0.5;exitY=1;exitDx=0;exitDy=0;entryX=0.5;entryY=0;entryDx=0;entryDy=0;" edge="1" parent="1" source="3RdnUcvol1iS9yb7YuFm-4" target="3RdnUcvol1iS9yb7YuFm-5">
          <mxGeometry width="50" height="50" relative="1" as="geometry">
            <mxPoint x="380" y="300" as="sourcePoint" />
            <mxPoint x="430" y="250" as="targetPoint" />
          </mxGeometry>
        </mxCell>
        <mxCell id="3RdnUcvol1iS9yb7YuFm-9" value="" style="endArrow=classic;html=1;rounded=0;exitX=0.5;exitY=1;exitDx=0;exitDy=0;entryX=0.5;entryY=0;entryDx=0;entryDy=0;" edge="1" parent="1" source="3RdnUcvol1iS9yb7YuFm-5" target="3RdnUcvol1iS9yb7YuFm-6">
          <mxGeometry width="50" height="50" relative="1" as="geometry">
            <mxPoint x="380" y="300" as="sourcePoint" />
            <mxPoint x="430" y="250" as="targetPoint" />
          </mxGeometry>
        </mxCell>
        <mxCell id="3RdnUcvol1iS9yb7YuFm-10" value="" style="endArrow=classic;html=1;rounded=0;exitX=0.939;exitY=0.188;exitDx=0;exitDy=0;exitPerimeter=0;" edge="1" parent="1" source="3RdnUcvol1iS9yb7YuFm-6" target="3RdnUcvol1iS9yb7YuFm-11">
          <mxGeometry width="50" height="50" relative="1" as="geometry">
            <mxPoint x="380" y="300" as="sourcePoint" />
            <mxPoint x="300" y="130" as="targetPoint" />
          </mxGeometry>
        </mxCell>
        <mxCell id="3RdnUcvol1iS9yb7YuFm-11" value="START" style="ellipse;whiteSpace=wrap;html=1;" vertex="1" parent="1">
          <mxGeometry x="200" y="60" width="120" height="80" as="geometry" />
        </mxCell>
        <mxCell id="3RdnUcvol1iS9yb7YuFm-22" style="edgeStyle=orthogonalEdgeStyle;rounded=0;orthogonalLoop=1;jettySize=auto;html=1;exitX=1;exitY=1;exitDx=0;exitDy=0;entryX=0.5;entryY=0;entryDx=0;entryDy=0;" edge="1" parent="1" source="3RdnUcvol1iS9yb7YuFm-12" target="3RdnUcvol1iS9yb7YuFm-20">
          <mxGeometry relative="1" as="geometry" />
        </mxCell>
        <mxCell id="3RdnUcvol1iS9yb7YuFm-12" value="RECV Login (user, pass)" style="ellipse;whiteSpace=wrap;html=1;" vertex="1" parent="1">
          <mxGeometry x="390" y="65" width="120" height="70" as="geometry" />
        </mxCell>
        <mxCell id="3RdnUcvol1iS9yb7YuFm-15" value="" style="endArrow=classic;html=1;rounded=0;exitX=1;exitY=0.5;exitDx=0;exitDy=0;entryX=0;entryY=0.5;entryDx=0;entryDy=0;" edge="1" parent="1" source="3RdnUcvol1iS9yb7YuFm-11" target="3RdnUcvol1iS9yb7YuFm-12">
          <mxGeometry width="50" height="50" relative="1" as="geometry">
            <mxPoint x="289.99999999999994" y="144.83999999999995" as="sourcePoint" />
            <mxPoint x="389" y="130" as="targetPoint" />
          </mxGeometry>
        </mxCell>
        <mxCell id="3RdnUcvol1iS9yb7YuFm-16" value="send ERROR (wrong user, pass)" style="ellipse;whiteSpace=wrap;html=1;" vertex="1" parent="1">
          <mxGeometry x="305" y="170" width="120" height="80" as="geometry" />
        </mxCell>
        <mxCell id="3RdnUcvol1iS9yb7YuFm-17" value="" style="endArrow=classic;html=1;rounded=0;exitX=0;exitY=1;exitDx=0;exitDy=0;entryX=0.5;entryY=0;entryDx=0;entryDy=0;" edge="1" parent="1" source="3RdnUcvol1iS9yb7YuFm-12" target="3RdnUcvol1iS9yb7YuFm-16">
          <mxGeometry width="50" height="50" relative="1" as="geometry">
            <mxPoint x="380" y="300" as="sourcePoint" />
            <mxPoint x="430" y="250" as="targetPoint" />
          </mxGeometry>
        </mxCell>
        <mxCell id="3RdnUcvol1iS9yb7YuFm-18" value="" style="endArrow=classic;html=1;rounded=0;entryX=0.611;entryY=0.996;entryDx=0;entryDy=0;entryPerimeter=0;exitX=0.228;exitY=0.104;exitDx=0;exitDy=0;exitPerimeter=0;" edge="1" parent="1" source="3RdnUcvol1iS9yb7YuFm-16" target="3RdnUcvol1iS9yb7YuFm-11">
          <mxGeometry width="50" height="50" relative="1" as="geometry">
            <mxPoint x="380" y="300" as="sourcePoint" />
            <mxPoint x="430" y="250" as="targetPoint" />
          </mxGeometry>
        </mxCell>
        <mxCell id="3RdnUcvol1iS9yb7YuFm-20" value="send GOOD (correct user, pass" style="ellipse;whiteSpace=wrap;html=1;" vertex="1" parent="1">
          <mxGeometry x="490" y="190" width="120" height="80" as="geometry" />
        </mxCell>
        <mxCell id="3RdnUcvol1iS9yb7YuFm-24" value="RECV QUIT --&amp;gt; end connection" style="ellipse;whiteSpace=wrap;html=1;" vertex="1" parent="1">
          <mxGeometry x="210" y="330" width="120" height="80" as="geometry" />
        </mxCell>
        <mxCell id="3RdnUcvol1iS9yb7YuFm-25" value="" style="endArrow=classic;html=1;rounded=0;exitX=0.5;exitY=1;exitDx=0;exitDy=0;entryX=0.5;entryY=0;entryDx=0;entryDy=0;" edge="1" parent="1" source="3RdnUcvol1iS9yb7YuFm-11" target="3RdnUcvol1iS9yb7YuFm-24">
          <mxGeometry width="50" height="50" relative="1" as="geometry">
            <mxPoint x="380" y="300" as="sourcePoint" />
            <mxPoint x="430" y="250" as="targetPoint" />
          </mxGeometry>
        </mxCell>
        <mxCell id="3RdnUcvol1iS9yb7YuFm-29" style="edgeStyle=orthogonalEdgeStyle;rounded=0;orthogonalLoop=1;jettySize=auto;html=1;exitX=0.5;exitY=1;exitDx=0;exitDy=0;" edge="1" parent="1">
          <mxGeometry relative="1" as="geometry">
            <mxPoint x="485" y="425" as="sourcePoint" />
            <mxPoint x="485" y="425" as="targetPoint" />
          </mxGeometry>
        </mxCell>
        <mxCell id="3RdnUcvol1iS9yb7YuFm-30" value="" style="endArrow=classic;html=1;rounded=0;entryX=0.638;entryY=-0.015;entryDx=0;entryDy=0;exitX=0.35;exitY=0.996;exitDx=0;exitDy=0;exitPerimeter=0;entryPerimeter=0;" edge="1" parent="1" source="3RdnUcvol1iS9yb7YuFm-20" target="uPRP7vyJzEBXJJDbciV--1">
          <mxGeometry width="50" height="50" relative="1" as="geometry">
            <mxPoint x="380" y="300" as="sourcePoint" />
            <mxPoint x="485" y="315" as="targetPoint" />
          </mxGeometry>
        </mxCell>
        <mxCell id="3RdnUcvol1iS9yb7YuFm-33" value="" style="endArrow=classic;html=1;rounded=0;exitX=0;exitY=0;exitDx=0;exitDy=0;entryX=1;entryY=0.5;entryDx=0;entryDy=0;" edge="1" parent="1" source="uPRP7vyJzEBXJJDbciV--1" target="3RdnUcvol1iS9yb7YuFm-24">
          <mxGeometry width="50" height="50" relative="1" as="geometry">
            <mxPoint x="425" y="315" as="sourcePoint" />
            <mxPoint x="430" y="250" as="targetPoint" />
          </mxGeometry>
        </mxCell>
        <mxCell id="uPRP7vyJzEBXJJDbciV--2" value="1" style="edgeLabel;html=1;align=center;verticalAlign=middle;resizable=0;points=[];" vertex="1" connectable="0" parent="3RdnUcvol1iS9yb7YuFm-33">
          <mxGeometry x="-0.1374" y="-1" relative="1" as="geometry">
            <mxPoint as="offset" />
          </mxGeometry>
        </mxCell>
        <mxCell id="uPRP7vyJzEBXJJDbciV--1" value="&lt;div style=&quot;&quot;&gt;&lt;span style=&quot;background-color: transparent; color: light-dark(rgb(0, 0, 0), rgb(255, 255, 255));&quot;&gt;RECV requests:&lt;/span&gt;&lt;/div&gt;&lt;div&gt;1. Logout&lt;/div&gt;&lt;div&gt;2. Query&lt;/div&gt;&lt;div&gt;3. Control&lt;/div&gt;&lt;div&gt;&lt;br&gt;&lt;/div&gt;" style="rounded=0;whiteSpace=wrap;html=1;align=left;" vertex="1" parent="1">
          <mxGeometry x="410" y="310" width="120" height="110" as="geometry" />
        </mxCell>
      </root>
    </mxGraphModel>
  </diagram>
  <diagram id="g66SyqmfMaCKlho5UIgi" name="server state part 2">
    <mxGraphModel dx="794" dy="481" grid="1" gridSize="10" guides="1" tooltips="1" connect="1" arrows="1" fold="1" page="1" pageScale="1" pageWidth="850" pageHeight="1100" math="0" shadow="0">
      <root>
        <mxCell id="0" />
        <mxCell id="1" parent="0" />
        <mxCell id="Sy64XrItpRH6cmKIS93T-1" value="&lt;div style=&quot;&quot;&gt;&lt;span style=&quot;background-color: transparent; color: light-dark(rgb(0, 0, 0), rgb(255, 255, 255));&quot;&gt;RECV requests:&lt;/span&gt;&lt;/div&gt;&lt;div&gt;1. Logout&lt;/div&gt;&lt;div&gt;2. Query&lt;/div&gt;&lt;div&gt;3. Control&lt;/div&gt;&lt;div&gt;&lt;br&gt;&lt;/div&gt;" style="rounded=0;whiteSpace=wrap;html=1;align=left;" vertex="1" parent="1">
          <mxGeometry x="350" y="100" width="120" height="110" as="geometry" />
        </mxCell>
        <mxCell id="4hphHsxGxmTUSQ5M0t5l-1" value="control device -&amp;nbsp;&lt;div&gt;&lt;div style=&quot;&quot;&gt;1. control lamp (id) on|off|dim (level) |color (color)&lt;/div&gt;&lt;div style=&quot;&quot;&gt;2. control ceiling_light (id) on|off|dim (level) |color (color)&lt;/div&gt;&lt;div style=&quot;&quot;&gt;3. control lock (id)&amp;nbsp;lock|unlock (code)&lt;/div&gt;&lt;div style=&quot;&quot;&gt;4. control blinds (id)&amp;nbsp;open|close|up|down&lt;/div&gt;&lt;div style=&quot;&quot;&gt;5. control alarm&amp;nbsp;&lt;span style=&quot;background-color: transparent; color: light-dark(rgb(0, 0, 0), rgb(255, 255, 255));&quot;&gt;(id)&lt;/span&gt;&lt;span style=&quot;background-color: transparent; color: light-dark(rgb(0, 0, 0), rgb(255, 255, 255));&quot;&gt;&amp;nbsp;arm|disarm|trigger|stop&lt;/span&gt;&lt;/div&gt;&lt;/div&gt;" style="rounded=0;whiteSpace=wrap;html=1;align=left;" vertex="1" parent="1">
          <mxGeometry x="30" y="300" width="340" height="120" as="geometry" />
        </mxCell>
        <mxCell id="BkUhrIznGvzTsz_lzCrb-3" value="respond (not enough params)" style="ellipse;whiteSpace=wrap;html=1;aspect=fixed;" vertex="1" parent="1">
          <mxGeometry x="30" y="60" width="80" height="80" as="geometry" />
        </mxCell>
        <mxCell id="BkUhrIznGvzTsz_lzCrb-4" value="respond SUCCESS" style="ellipse;whiteSpace=wrap;html=1;aspect=fixed;" vertex="1" parent="1">
          <mxGeometry x="90" y="130" width="80" height="80" as="geometry" />
        </mxCell>
        <mxCell id="BkUhrIznGvzTsz_lzCrb-5" value="respond&amp;nbsp;&lt;div&gt;FAIL&lt;/div&gt;" style="ellipse;whiteSpace=wrap;html=1;aspect=fixed;" vertex="1" parent="1">
          <mxGeometry x="180" y="190" width="80" height="80" as="geometry" />
        </mxCell>
        <mxCell id="BkUhrIznGvzTsz_lzCrb-6" value="" style="endArrow=classic;html=1;rounded=0;exitX=0;exitY=0;exitDx=0;exitDy=0;entryX=0.5;entryY=1;entryDx=0;entryDy=0;" edge="1" parent="1" source="4hphHsxGxmTUSQ5M0t5l-1" target="BkUhrIznGvzTsz_lzCrb-3">
          <mxGeometry width="50" height="50" relative="1" as="geometry">
            <mxPoint x="380" y="280" as="sourcePoint" />
            <mxPoint x="430" y="230" as="targetPoint" />
          </mxGeometry>
        </mxCell>
        <mxCell id="BkUhrIznGvzTsz_lzCrb-7" value="" style="endArrow=classic;html=1;rounded=0;exitX=0.967;exitY=0.346;exitDx=0;exitDy=0;exitPerimeter=0;entryX=0;entryY=0;entryDx=0;entryDy=0;" edge="1" parent="1" source="BkUhrIznGvzTsz_lzCrb-3" target="Sy64XrItpRH6cmKIS93T-1">
          <mxGeometry width="50" height="50" relative="1" as="geometry">
            <mxPoint x="380" y="280" as="sourcePoint" />
            <mxPoint x="430" y="230" as="targetPoint" />
          </mxGeometry>
        </mxCell>
        <mxCell id="BkUhrIznGvzTsz_lzCrb-8" value="" style="endArrow=classic;html=1;rounded=0;exitX=0;exitY=0;exitDx=0;exitDy=0;entryX=0.5;entryY=1;entryDx=0;entryDy=0;" edge="1" parent="1" source="4hphHsxGxmTUSQ5M0t5l-1" target="BkUhrIznGvzTsz_lzCrb-4">
          <mxGeometry width="50" height="50" relative="1" as="geometry">
            <mxPoint x="380" y="280" as="sourcePoint" />
            <mxPoint x="430" y="230" as="targetPoint" />
          </mxGeometry>
        </mxCell>
        <mxCell id="BkUhrIznGvzTsz_lzCrb-9" value="" style="endArrow=classic;html=1;rounded=0;exitX=0;exitY=0;exitDx=0;exitDy=0;" edge="1" parent="1" source="4hphHsxGxmTUSQ5M0t5l-1" target="BkUhrIznGvzTsz_lzCrb-5">
          <mxGeometry width="50" height="50" relative="1" as="geometry">
            <mxPoint x="380" y="280" as="sourcePoint" />
            <mxPoint x="430" y="230" as="targetPoint" />
          </mxGeometry>
        </mxCell>
        <mxCell id="BkUhrIznGvzTsz_lzCrb-10" value="" style="endArrow=classic;html=1;rounded=0;exitX=1.008;exitY=0.379;exitDx=0;exitDy=0;exitPerimeter=0;entryX=-0.006;entryY=0.139;entryDx=0;entryDy=0;entryPerimeter=0;" edge="1" parent="1" source="BkUhrIznGvzTsz_lzCrb-4" target="Sy64XrItpRH6cmKIS93T-1">
          <mxGeometry width="50" height="50" relative="1" as="geometry">
            <mxPoint x="380" y="280" as="sourcePoint" />
            <mxPoint x="430" y="230" as="targetPoint" />
          </mxGeometry>
        </mxCell>
        <mxCell id="BkUhrIznGvzTsz_lzCrb-11" value="" style="endArrow=classic;html=1;rounded=0;exitX=1;exitY=0.5;exitDx=0;exitDy=0;entryX=0;entryY=0.25;entryDx=0;entryDy=0;" edge="1" parent="1" source="BkUhrIznGvzTsz_lzCrb-5" target="Sy64XrItpRH6cmKIS93T-1">
          <mxGeometry width="50" height="50" relative="1" as="geometry">
            <mxPoint x="380" y="280" as="sourcePoint" />
            <mxPoint x="430" y="230" as="targetPoint" />
          </mxGeometry>
        </mxCell>
        <mxCell id="BkUhrIznGvzTsz_lzCrb-12" value="" style="endArrow=classic;html=1;rounded=0;exitX=0;exitY=1;exitDx=0;exitDy=0;entryX=0.825;entryY=-0.008;entryDx=0;entryDy=0;entryPerimeter=0;" edge="1" parent="1" source="Sy64XrItpRH6cmKIS93T-1" target="4hphHsxGxmTUSQ5M0t5l-1">
          <mxGeometry width="50" height="50" relative="1" as="geometry">
            <mxPoint x="380" y="340" as="sourcePoint" />
            <mxPoint x="430" y="290" as="targetPoint" />
          </mxGeometry>
        </mxCell>
        <mxCell id="BkUhrIznGvzTsz_lzCrb-13" value="3" style="edgeLabel;html=1;align=center;verticalAlign=middle;resizable=0;points=[];" vertex="1" connectable="0" parent="BkUhrIznGvzTsz_lzCrb-12">
          <mxGeometry x="-0.0153" y="-2" relative="1" as="geometry">
            <mxPoint as="offset" />
          </mxGeometry>
        </mxCell>
        <mxCell id="BkUhrIznGvzTsz_lzCrb-14" value="" style="endArrow=classic;html=1;rounded=0;exitX=1;exitY=1;exitDx=0;exitDy=0;" edge="1" parent="1" source="Sy64XrItpRH6cmKIS93T-1" target="BkUhrIznGvzTsz_lzCrb-15">
          <mxGeometry width="50" height="50" relative="1" as="geometry">
            <mxPoint x="380" y="340" as="sourcePoint" />
            <mxPoint x="510" y="310" as="targetPoint" />
          </mxGeometry>
        </mxCell>
        <mxCell id="BkUhrIznGvzTsz_lzCrb-17" value="2" style="edgeLabel;html=1;align=center;verticalAlign=middle;resizable=0;points=[];" vertex="1" connectable="0" parent="BkUhrIznGvzTsz_lzCrb-14">
          <mxGeometry x="-0.0656" y="1" relative="1" as="geometry">
            <mxPoint as="offset" />
          </mxGeometry>
        </mxCell>
        <mxCell id="BkUhrIznGvzTsz_lzCrb-15" value="resp QUERY" style="ellipse;whiteSpace=wrap;html=1;aspect=fixed;" vertex="1" parent="1">
          <mxGeometry x="470" y="270" width="80" height="80" as="geometry" />
        </mxCell>
        <mxCell id="BkUhrIznGvzTsz_lzCrb-16" value="" style="endArrow=classic;html=1;rounded=0;exitX=0;exitY=0.5;exitDx=0;exitDy=0;entryX=0.5;entryY=1;entryDx=0;entryDy=0;" edge="1" parent="1" source="BkUhrIznGvzTsz_lzCrb-15" target="Sy64XrItpRH6cmKIS93T-1">
          <mxGeometry width="50" height="50" relative="1" as="geometry">
            <mxPoint x="380" y="340" as="sourcePoint" />
            <mxPoint x="430" y="290" as="targetPoint" />
          </mxGeometry>
        </mxCell>
      </root>
    </mxGraphModel>
  </diagram>
  <diagram id="G9x_3t4HNUkkC5iFbpsB" name="Page-6">
    <mxGraphModel dx="794" dy="481" grid="1" gridSize="10" guides="1" tooltips="1" connect="1" arrows="1" fold="1" page="1" pageScale="1" pageWidth="850" pageHeight="1100" math="0" shadow="0">
      <root>
        <mxCell id="0" />
        <mxCell id="1" parent="0" />
        <mxCell id="z9BOk2oJW8-lcUJQW47I-14" style="edgeStyle=orthogonalEdgeStyle;rounded=0;orthogonalLoop=1;jettySize=auto;html=1;exitX=1;exitY=0.5;exitDx=0;exitDy=0;entryX=0;entryY=0.5;entryDx=0;entryDy=0;" edge="1" parent="1" source="z9BOk2oJW8-lcUJQW47I-2" target="z9BOk2oJW8-lcUJQW47I-6">
          <mxGeometry relative="1" as="geometry" />
        </mxCell>
        <mxCell id="z9BOk2oJW8-lcUJQW47I-31" value="login (user, pass)" style="edgeLabel;html=1;align=center;verticalAlign=middle;resizable=0;points=[];" vertex="1" connectable="0" parent="z9BOk2oJW8-lcUJQW47I-14">
          <mxGeometry x="-0.4456" y="4" relative="1" as="geometry">
            <mxPoint as="offset" />
          </mxGeometry>
        </mxCell>
        <mxCell id="z9BOk2oJW8-lcUJQW47I-28" style="edgeStyle=orthogonalEdgeStyle;rounded=0;orthogonalLoop=1;jettySize=auto;html=1;exitX=1;exitY=1;exitDx=0;exitDy=0;entryX=0.5;entryY=0;entryDx=0;entryDy=0;" edge="1" parent="1" source="z9BOk2oJW8-lcUJQW47I-2" target="z9BOk2oJW8-lcUJQW47I-3">
          <mxGeometry relative="1" as="geometry" />
        </mxCell>
        <mxCell id="z9BOk2oJW8-lcUJQW47I-2" value="client" style="ellipse;whiteSpace=wrap;html=1;" vertex="1" parent="1">
          <mxGeometry x="120" y="60" width="80" height="50" as="geometry" />
        </mxCell>
        <mxCell id="z9BOk2oJW8-lcUJQW47I-16" style="edgeStyle=orthogonalEdgeStyle;rounded=0;orthogonalLoop=1;jettySize=auto;html=1;exitX=1;exitY=0;exitDx=0;exitDy=0;entryX=0;entryY=0.25;entryDx=0;entryDy=0;" edge="1" parent="1" source="z9BOk2oJW8-lcUJQW47I-3" target="z9BOk2oJW8-lcUJQW47I-7">
          <mxGeometry relative="1" as="geometry" />
        </mxCell>
        <mxCell id="z9BOk2oJW8-lcUJQW47I-33" value="query all" style="edgeLabel;html=1;align=center;verticalAlign=middle;resizable=0;points=[];" vertex="1" connectable="0" parent="z9BOk2oJW8-lcUJQW47I-16">
          <mxGeometry x="-0.4233" y="2" relative="1" as="geometry">
            <mxPoint as="offset" />
          </mxGeometry>
        </mxCell>
        <mxCell id="z9BOk2oJW8-lcUJQW47I-29" style="edgeStyle=orthogonalEdgeStyle;rounded=0;orthogonalLoop=1;jettySize=auto;html=1;exitX=1;exitY=0.5;exitDx=0;exitDy=0;" edge="1" parent="1" source="z9BOk2oJW8-lcUJQW47I-3" target="z9BOk2oJW8-lcUJQW47I-4">
          <mxGeometry relative="1" as="geometry" />
        </mxCell>
        <mxCell id="z9BOk2oJW8-lcUJQW47I-3" value="client" style="ellipse;whiteSpace=wrap;html=1;" vertex="1" parent="1">
          <mxGeometry x="120" y="140" width="80" height="50" as="geometry" />
        </mxCell>
        <mxCell id="z9BOk2oJW8-lcUJQW47I-19" style="edgeStyle=orthogonalEdgeStyle;rounded=0;orthogonalLoop=1;jettySize=auto;html=1;exitX=1;exitY=0.5;exitDx=0;exitDy=0;entryX=0;entryY=0.25;entryDx=0;entryDy=0;" edge="1" parent="1" source="z9BOk2oJW8-lcUJQW47I-4" target="z9BOk2oJW8-lcUJQW47I-13">
          <mxGeometry relative="1" as="geometry" />
        </mxCell>
        <mxCell id="z9BOk2oJW8-lcUJQW47I-36" value="control lamp 1 on" style="edgeLabel;html=1;align=center;verticalAlign=middle;resizable=0;points=[];" vertex="1" connectable="0" parent="z9BOk2oJW8-lcUJQW47I-19">
          <mxGeometry x="0.1667" y="2" relative="1" as="geometry">
            <mxPoint as="offset" />
          </mxGeometry>
        </mxCell>
        <mxCell id="z9BOk2oJW8-lcUJQW47I-30" style="edgeStyle=orthogonalEdgeStyle;rounded=0;orthogonalLoop=1;jettySize=auto;html=1;exitX=1;exitY=1;exitDx=0;exitDy=0;entryX=0.5;entryY=0;entryDx=0;entryDy=0;" edge="1" parent="1" source="z9BOk2oJW8-lcUJQW47I-4" target="z9BOk2oJW8-lcUJQW47I-5">
          <mxGeometry relative="1" as="geometry" />
        </mxCell>
        <mxCell id="z9BOk2oJW8-lcUJQW47I-4" value="client" style="ellipse;whiteSpace=wrap;html=1;" vertex="1" parent="1">
          <mxGeometry x="120" y="220" width="80" height="50" as="geometry" />
        </mxCell>
        <mxCell id="z9BOk2oJW8-lcUJQW47I-22" style="edgeStyle=orthogonalEdgeStyle;rounded=0;orthogonalLoop=1;jettySize=auto;html=1;exitX=1;exitY=0.5;exitDx=0;exitDy=0;entryX=0;entryY=0.25;entryDx=0;entryDy=0;" edge="1" parent="1" source="z9BOk2oJW8-lcUJQW47I-5" target="z9BOk2oJW8-lcUJQW47I-12">
          <mxGeometry relative="1" as="geometry" />
        </mxCell>
        <mxCell id="z9BOk2oJW8-lcUJQW47I-38" value="logout" style="edgeLabel;html=1;align=center;verticalAlign=middle;resizable=0;points=[];" vertex="1" connectable="0" parent="z9BOk2oJW8-lcUJQW47I-22">
          <mxGeometry x="0.3567" y="-1" relative="1" as="geometry">
            <mxPoint as="offset" />
          </mxGeometry>
        </mxCell>
        <mxCell id="z9BOk2oJW8-lcUJQW47I-5" value="client" style="ellipse;whiteSpace=wrap;html=1;" vertex="1" parent="1">
          <mxGeometry x="120" y="300" width="80" height="50" as="geometry" />
        </mxCell>
        <mxCell id="z9BOk2oJW8-lcUJQW47I-15" style="edgeStyle=orthogonalEdgeStyle;rounded=0;orthogonalLoop=1;jettySize=auto;html=1;exitX=0;exitY=0.75;exitDx=0;exitDy=0;entryX=1;entryY=1;entryDx=0;entryDy=0;" edge="1" parent="1" source="z9BOk2oJW8-lcUJQW47I-6" target="z9BOk2oJW8-lcUJQW47I-2">
          <mxGeometry relative="1" as="geometry" />
        </mxCell>
        <mxCell id="z9BOk2oJW8-lcUJQW47I-32" value="success" style="edgeLabel;html=1;align=center;verticalAlign=middle;resizable=0;points=[];" vertex="1" connectable="0" parent="z9BOk2oJW8-lcUJQW47I-15">
          <mxGeometry x="0.3087" relative="1" as="geometry">
            <mxPoint as="offset" />
          </mxGeometry>
        </mxCell>
        <mxCell id="z9BOk2oJW8-lcUJQW47I-6" value="server" style="rounded=0;whiteSpace=wrap;html=1;" vertex="1" parent="1">
          <mxGeometry x="390" y="65" width="90" height="40" as="geometry" />
        </mxCell>
        <mxCell id="z9BOk2oJW8-lcUJQW47I-17" style="edgeStyle=orthogonalEdgeStyle;rounded=0;orthogonalLoop=1;jettySize=auto;html=1;exitX=0;exitY=0.75;exitDx=0;exitDy=0;entryX=1;entryY=0.5;entryDx=0;entryDy=0;" edge="1" parent="1" source="z9BOk2oJW8-lcUJQW47I-7">
          <mxGeometry relative="1" as="geometry">
            <mxPoint x="380" y="190" as="sourcePoint" />
            <mxPoint x="190" y="180" as="targetPoint" />
          </mxGeometry>
        </mxCell>
        <mxCell id="z9BOk2oJW8-lcUJQW47I-35" value="success (nested dict response)" style="edgeLabel;html=1;align=center;verticalAlign=middle;resizable=0;points=[];" vertex="1" connectable="0" parent="z9BOk2oJW8-lcUJQW47I-17">
          <mxGeometry x="-0.3642" y="1" relative="1" as="geometry">
            <mxPoint x="-15" y="4" as="offset" />
          </mxGeometry>
        </mxCell>
        <mxCell id="z9BOk2oJW8-lcUJQW47I-7" value="server" style="rounded=0;whiteSpace=wrap;html=1;" vertex="1" parent="1">
          <mxGeometry x="390" y="145" width="90" height="40" as="geometry" />
        </mxCell>
        <mxCell id="z9BOk2oJW8-lcUJQW47I-25" style="edgeStyle=orthogonalEdgeStyle;rounded=0;orthogonalLoop=1;jettySize=auto;html=1;exitX=0;exitY=0.75;exitDx=0;exitDy=0;entryX=1;entryY=1;entryDx=0;entryDy=0;" edge="1" parent="1" source="z9BOk2oJW8-lcUJQW47I-12" target="z9BOk2oJW8-lcUJQW47I-5">
          <mxGeometry relative="1" as="geometry" />
        </mxCell>
        <mxCell id="z9BOk2oJW8-lcUJQW47I-39" value="success" style="edgeLabel;html=1;align=center;verticalAlign=middle;resizable=0;points=[];" vertex="1" connectable="0" parent="z9BOk2oJW8-lcUJQW47I-25">
          <mxGeometry x="-0.5766" y="-1" relative="1" as="geometry">
            <mxPoint as="offset" />
          </mxGeometry>
        </mxCell>
        <mxCell id="z9BOk2oJW8-lcUJQW47I-12" value="server" style="rounded=0;whiteSpace=wrap;html=1;" vertex="1" parent="1">
          <mxGeometry x="390" y="305" width="90" height="40" as="geometry" />
        </mxCell>
        <mxCell id="z9BOk2oJW8-lcUJQW47I-13" value="server" style="rounded=0;whiteSpace=wrap;html=1;" vertex="1" parent="1">
          <mxGeometry x="390" y="225" width="90" height="40" as="geometry" />
        </mxCell>
        <mxCell id="z9BOk2oJW8-lcUJQW47I-20" style="edgeStyle=orthogonalEdgeStyle;rounded=0;orthogonalLoop=1;jettySize=auto;html=1;exitX=0;exitY=0.75;exitDx=0;exitDy=0;" edge="1" parent="1" source="z9BOk2oJW8-lcUJQW47I-13">
          <mxGeometry relative="1" as="geometry">
            <mxPoint x="200" y="255" as="targetPoint" />
          </mxGeometry>
        </mxCell>
        <mxCell id="z9BOk2oJW8-lcUJQW47I-37" value="success (ctrl message)" style="edgeLabel;html=1;align=center;verticalAlign=middle;resizable=0;points=[];" vertex="1" connectable="0" parent="z9BOk2oJW8-lcUJQW47I-20">
          <mxGeometry x="-0.2511" y="3" relative="1" as="geometry">
            <mxPoint as="offset" />
          </mxGeometry>
        </mxCell>
      </root>
    </mxGraphModel>
  </diagram>
</mxfile>
